<?xml version="1.0" standalone="no"?>
<!DOCTYPE svg PUBLIC "-//W3C//DTD SVG 20010904//EN"
 "http://www.w3.org/TR/2001/REC-SVG-20010904/DTD/svg10.dtd">
<svg version="1.0" xmlns="http://www.w3.org/2000/svg"
 width="190.000000pt" height="281.000000pt" viewBox="0 0 190.000000 281.000000"
 preserveAspectRatio="xMidYMid meet">

<g transform="translate(0.000000,281.000000) scale(0.100000,-0.100000)"
fill="#000000" stroke="none">
<path d="M597 2774 c-17 -17 -3 -22 61 -21 37 1 84 -2 105 -6 22 -5 37 -4 34
0 -3 5 10 7 29 5 27 -3 32 -7 24 -18 -9 -10 -7 -13 10 -11 14 1 20 7 17 18 -4
14 1 15 29 9 18 -4 36 -5 39 -2 3 4 10 0 16 -8 8 -13 11 -13 22 1 23 30 269 6
250 -24 -2 -4 -11 -3 -19 4 -10 8 -14 8 -14 0 0 -10 14 -15 34 -12 22 4 46
-12 46 -32 0 -47 11 -65 33 -59 22 5 21 4 -2 -18 -21 -21 -24 -22 -33 -6 -5 9
-14 14 -19 10 -5 -3 -16 -1 -23 5 -14 12 -46 5 -58 -13 -4 -6 -8 -21 -8 -34 0
-23 -1 -22 -26 7 -35 42 -84 43 -125 2 -16 -16 -29 -26 -29 -21 0 5 -7 15 -15
24 -14 14 -20 13 -60 -6 -40 -20 -45 -26 -45 -57 l0 -34 -26 24 c-20 19 -36
24 -82 24 -52 0 -57 -2 -56 -22 0 -13 -4 -19 -10 -16 -6 4 -25 6 -43 5 -29 -2
-33 0 -33 21 0 13 -8 34 -19 45 -15 18 -29 22 -79 22 -56 0 -62 -2 -85 -32
l-25 -31 -28 22 c-23 18 -38 22 -89 19 -50 -2 -60 0 -57 13 1 8 -6 41 -17 72
-15 48 -16 57 -4 57 20 0 11 24 -10 28 -24 5 -76 -56 -88 -103 -26 -100 -37
-130 -38 -104 -1 35 -36 67 -59 53 -9 -6 -18 -23 -20 -38 -3 -22 1 -26 21 -26
21 0 24 4 20 23 -5 21 -5 21 12 5 15 -14 16 -20 5 -33 -11 -14 -10 -18 8 -31
17 -12 22 -25 22 -62 0 -34 -3 -43 -10 -32 -5 8 -10 27 -10 42 0 21 -4 26 -17
21 -9 -4 -14 -2 -11 3 3 5 -4 16 -16 26 l-23 16 -1 -123 c-1 -99 1 -125 13
-135 13 -11 20 -9 40 10 14 13 25 19 25 13 0 -6 -6 -14 -12 -17 -10 -5 -10 -7
-1 -12 9 -4 9 -10 1 -23 -13 -21 -48 -17 -48 5 0 8 -5 14 -10 14 -7 0 -10 -41
-9 -119 l3 -119 33 5 c29 5 33 3 33 -18 0 -18 3 -20 12 -11 16 16 28 15 28 -3
0 -23 16 -18 28 10 6 14 16 25 22 25 16 0 12 -15 -10 -35 -25 -23 -25 -37 0
-60 11 -10 20 -24 20 -32 0 -8 4 -12 9 -9 5 4 7 -3 4 -14 -4 -16 -2 -19 11
-14 14 5 16 2 10 -20 -4 -16 -2 -26 5 -26 27 0 1 182 -32 234 -16 24 -16 25 6
28 31 4 34 36 5 47 -14 6 -17 10 -8 10 20 1 40 -18 40 -37 0 -8 11 -25 25 -38
14 -13 25 -29 25 -37 0 -7 11 -20 25 -27 14 -7 25 -19 25 -27 0 -7 5 -13 11
-13 6 0 8 -8 4 -19 -6 -19 18 -36 36 -25 13 8 11 -10 -3 -24 -7 -7 -8 -12 -2
-12 6 0 15 5 22 12 15 15 16 3 1 -24 -8 -14 -8 -23 0 -31 6 -6 11 -19 11 -30
0 -25 22 -17 38 15 16 34 28 129 13 108 -9 -12 -11 -11 -11 8 0 13 4 20 10 17
14 -9 12 30 -4 68 -7 18 -29 48 -48 68 -29 32 -38 36 -71 33 -32 -4 -37 -2
-37 16 0 11 -4 20 -10 20 -5 0 -10 -10 -10 -22 0 -18 -2 -20 -9 -9 -6 9 -6 22
0 32 6 12 5 19 -4 22 -6 3 18 6 55 6 45 1 68 -3 71 -11 3 -10 7 -10 20 1 11 9
17 10 17 2 0 -6 14 -11 31 -11 21 0 30 4 26 13 -3 9 13 13 57 15 33 1 87 9
119 17 32 8 74 15 94 15 21 0 50 11 76 28 34 23 50 28 85 24 25 -2 49 1 55 7
6 6 23 11 38 11 15 0 34 6 41 13 7 7 30 14 51 14 21 1 44 6 51 12 8 6 27 11
42 10 16 0 54 4 84 9 30 5 57 7 60 3 10 -12 49 -5 68 12 17 16 21 16 32 2 7
-8 25 -15 41 -15 66 0 43 -52 -25 -54 -39 -1 -45 1 -40 17 3 9 1 17 -5 17 -6
0 -11 -6 -11 -14 0 -24 -28 -27 -33 -3 l-4 22 -2 -22 c-1 -20 -7 -23 -38 -23
-21 0 -48 -3 -60 -6 -20 -5 -23 -2 -24 22 l-1 29 -7 -29 c-4 -18 -13 -30 -25
-32 -45 -6 -66 -15 -61 -24 4 -6 11 -7 17 -4 6 4 14 0 19 -7 7 -11 9 -10 9 3
0 11 5 15 14 12 8 -3 17 -1 21 5 10 18 28 12 21 -6 -6 -15 -5 -15 13 1 11 10
26 16 33 13 7 -2 24 0 38 5 14 5 59 9 101 9 83 -1 106 11 96 49 -5 20 -3 20
71 13 43 -3 89 -7 105 -7 15 -1 27 -3 27 -6 0 -13 71 -2 89 14 11 10 25 15 32
10 7 -4 10 -3 6 4 -4 5 -9 32 -12 58 -3 26 -9 52 -14 57 -4 4 -6 29 -3 53 5
50 -16 82 -69 104 -20 9 -29 19 -28 34 1 18 2 18 6 3 3 -14 12 -18 28 -15 15
3 22 1 19 -7 -7 -17 27 -29 38 -13 7 12 12 4 9 -14 0 -5 4 -8 10 -8 7 0 9 10
5 25 -4 17 -2 25 7 25 28 0 57 49 57 95 l0 45 -537 1 c-296 0 -582 0 -635 0
-54 0 -102 -2 -107 -5 -5 -4 -11 -1 -13 5 -2 5 -7 7 -11 3z m683 -44 c0 -5 -2
-10 -4 -10 -3 0 -8 5 -11 10 -3 6 -1 10 4 10 6 0 11 -4 11 -10z m88 -97 c-12
-15 -55 -10 -73 8 -7 7 6 9 37 8 39 -2 45 -5 36 -16z m39 3 c-7 -18 15 -27 34
-15 12 7 12 9 -1 9 -13 0 -13 1 0 10 20 13 60 13 60 0 0 -6 -12 -8 -27 -5 -16
3 -23 3 -16 -1 8 -4 6 -11 -8 -25 -16 -16 -23 -18 -42 -8 -29 16 -28 14 -21
33 3 9 11 16 16 16 6 0 8 -6 5 -14z m136 2 c4 -9 8 -9 14 -3 13 16 73 16 73 1
0 -19 -41 -28 -59 -13 -14 11 -14 10 -2 -6 24 -31 5 -29 -29 3 -21 19 -27 30
-17 30 8 0 18 -6 20 -12z m139 -22 c4 3 4 12 1 20 -4 10 0 12 11 8 21 -8 20
-20 -3 -45 l-19 -21 -7 21 c-3 12 -10 19 -15 16 -4 -3 -6 5 -3 16 l6 21 12
-21 c6 -12 14 -19 17 -15z m83 24 c-3 -5 -12 -10 -18 -10 -7 0 -6 4 3 10 19
12 23 12 15 0z m-226 -53 c6 -8 14 -28 17 -45 6 -28 4 -32 -16 -32 -13 0 -24
8 -27 20 -12 45 -23 15 -23 -60 0 -47 4 -80 10 -80 6 0 10 11 10 23 0 29 7 37
26 30 19 -7 18 -58 -2 -77 -20 -20 -43 -20 -72 0 -20 14 -22 23 -22 106 0 71
4 96 17 110 19 21 66 24 82 5z m-135 -19 c8 -12 13 -25 10 -30 -7 -11 -44 -10
-44 2 0 6 -4 10 -10 10 -21 0 -9 -26 21 -44 70 -42 58 -146 -18 -146 -28 0
-51 21 -59 53 -5 24 -3 27 20 27 16 0 26 -6 26 -15 0 -8 5 -15 10 -15 6 0 10
11 10 24 0 17 -12 34 -35 52 -38 29 -43 48 -19 82 20 29 68 30 88 0z m246 15
c0 -5 7 -53 15 -108 19 -127 19 -125 -5 -125 -11 0 -20 7 -20 15 0 8 -7 15
-15 15 -8 0 -15 -7 -15 -16 0 -11 -6 -14 -22 -8 -13 3 -24 7 -25 8 -1 1 2 19
7 41 4 22 13 73 20 113 11 66 14 72 36 72 13 0 24 -3 24 -7z m-524 -28 c31
-31 29 -69 -4 -73 -13 -2 -25 3 -28 12 -3 9 -10 16 -15 16 -13 0 -11 -128 2
-136 15 -9 31 18 19 30 -20 20 -10 36 20 36 29 0 30 -2 30 -42 0 -55 -9 -68
-51 -74 -61 -10 -73 10 -77 119 -4 86 -2 97 17 116 28 28 56 26 87 -4z m143
-27 c5 -29 12 -71 16 -93 3 -22 8 -48 11 -57 4 -14 -1 -18 -20 -18 -14 0 -26
5 -26 10 0 6 -7 10 -15 10 -8 0 -15 -7 -15 -15 0 -9 -9 -15 -25 -15 -29 0 -29
3 -15 105 18 123 18 125 50 125 27 0 29 -4 39 -52z m505 31 c27 -21 34 -60 17
-88 -6 -10 -5 -22 5 -35 8 -11 14 -38 14 -59 0 -34 -3 -38 -22 -35 -18 2 -24
11 -27 38 l-4 35 -6 -35 c-5 -26 -11 -35 -26 -35 -19 0 -20 8 -23 118 l-3 117
24 0 c14 0 36 -9 51 -21z m-1206 -181 l-3 -183 -54 -3 -53 -3 4 40 c4 44 -2
50 -22 26 -17 -20 -30 -19 -57 7 l-23 21 0 -51 0 -52 -65 0 -65 0 2 173 3 172
55 6 c54 6 56 6 88 -30 29 -32 34 -34 42 -19 6 9 22 31 36 47 22 26 33 31 70
31 l44 0 -2 -182z m402 164 c0 -9 34 -170 46 -216 l7 -29 -40 6 c-35 6 -41 4
-46 -13 -3 -13 -14 -20 -29 -20 l-23 0 7 127 c3 71 6 131 7 135 2 14 71 23 71
10z m-147 -59 c26 -24 47 -74 47 -115 0 -43 -39 -100 -82 -121 l-33 -16 -6 43
c-4 24 -10 87 -14 141 l-8 98 38 -6 c21 -3 47 -14 58 -24z m-139 -30 c10 -35
46 -203 46 -218 0 -17 -45 -21 -55 -5 -4 6 -18 1 -35 -11 -53 -40 -56 -19 -34
199 5 51 6 52 39 52 23 0 35 -5 39 -17z m-474 -3 c0 -5 -2 -10 -4 -10 -3 0 -8
5 -11 10 -3 6 -1 10 4 10 6 0 11 -4 11 -10z m-133 -97 c18 -37 11 -39 -11 -3
-9 17 -14 30 -9 30 4 0 14 -12 20 -27z m-27 -57 c0 -11 -19 -15 -25 -6 -3 5 1
10 9 10 9 0 16 -2 16 -4z m10 -26 c0 -5 -5 -10 -11 -10 -5 0 -7 5 -4 10 3 6 8
10 11 10 2 0 4 -4 4 -10z m27 -132 c-3 -8 -6 -5 -6 6 -1 11 2 17 5 13 3 -3 4
-12 1 -19z m73 -69 c0 -11 -27 -12 -34 0 -3 4 -3 11 0 14 8 8 34 -3 34 -14z
m-54 -35 c4 -22 9 -31 14 -24 4 7 12 11 18 9 7 -3 6 -10 -2 -22 -21 -27 -44
-11 -48 34 -4 49 9 51 18 3z m298 -39 c3 -8 1 -15 -4 -15 -6 0 -10 7 -10 15 0
8 2 15 4 15 2 0 6 -7 10 -15z m-214 -57 c0 -7 -5 -20 -10 -28 -12 -20 -33 0
-24 23 7 20 34 23 34 5z"/>
<path d="M1620 2499 c0 -13 -3 -34 -6 -46 -5 -17 -2 -23 10 -23 13 0 15 7 10
43 -8 49 -14 61 -14 26z"/>
<path d="M1220 2469 c0 -28 4 -39 13 -36 6 2 12 9 11 15 -1 7 -2 23 -2 37 -3
42 -22 28 -22 -16z"/>
<path d="M1752 2510 c0 -14 2 -19 5 -12 2 6 2 18 0 25 -3 6 -5 1 -5 -13z"/>
<path d="M930 2421 c0 -38 4 -51 13 -48 7 2 11 18 9 43 -5 62 -22 66 -22 5z"/>
<path d="M780 2390 c0 -22 4 -40 10 -40 12 0 24 45 16 65 -11 29 -26 15 -26
-25z"/>
<path d="M640 2345 c0 -35 4 -45 16 -45 12 0 15 6 10 23 -3 12 -6 32 -6 45 0
12 -4 22 -10 22 -5 0 -10 -20 -10 -45z"/>
<path d="M549 2761 c8 -5 11 -16 8 -25 -4 -9 -2 -16 3 -16 6 0 10 11 10 25 0
17 -5 25 -17 25 -15 0 -15 -2 -4 -9z"/>
<path d="M140 2740 c-6 -11 -9 -26 -7 -33 3 -7 10 1 16 17 14 35 7 47 -9 16z"/>
<path d="M1015 2740 c3 -5 16 -10 28 -10 18 0 19 2 7 10 -20 13 -43 13 -35 0z"/>
<path d="M657 2734 c12 -3 24 -13 27 -22 3 -12 4 -11 3 3 -2 14 -10 21 -27 22
-21 1 -21 1 -3 -3z"/>
<path d="M713 2733 c-10 -3 -10 -8 1 -19 11 -10 21 -11 38 -5 22 9 22 10 -7
11 -30 2 -30 2 -5 10 20 6 21 8 5 8 -11 0 -26 -2 -32 -5z"/>
<path d="M353 2722 c-17 -10 0 -35 27 -39 12 -2 19 1 15 7 -3 5 -13 10 -22 10
-9 0 -13 6 -9 15 6 17 5 18 -11 7z"/>
<path d="M616 2713 c-6 -14 -5 -15 5 -6 7 7 10 15 7 18 -3 3 -9 -2 -12 -12z"/>
<path d="M60 2711 c0 -6 4 -13 10 -16 6 -3 7 1 4 9 -7 18 -14 21 -14 7z"/>
<path d="M800 2705 c0 -8 2 -15 4 -15 2 0 6 7 10 15 3 8 1 15 -4 15 -6 0 -10
-7 -10 -15z"/>
<path d="M37 2686 c10 -13 19 -23 21 -21 7 6 -19 45 -29 45 -5 0 -2 -11 8 -24z"/>
<path d="M590 2693 c0 -22 32 -42 38 -23 3 7 8 7 15 1 8 -6 17 -4 26 6 12 13
11 14 -8 8 -14 -4 -21 -2 -21 7 0 10 -3 9 -10 -2 -9 -13 -12 -12 -25 4 -15 19
-15 19 -15 -1z"/>
<path d="M486 2684 c-9 -23 -2 -28 13 -10 7 8 8 17 3 20 -6 3 -13 -1 -16 -10z"/>
<path d="M695 2680 c-3 -11 -10 -20 -15 -20 -5 0 -4 -14 2 -31 9 -27 14 -29
39 -24 19 4 29 3 29 -5 0 -6 -5 -8 -12 -4 -7 4 -8 3 -4 -4 10 -17 26 -15 26 3
0 10 10 15 33 15 30 -1 31 -1 13 -15 -18 -14 -18 -15 -2 -15 10 0 20 9 23 20
3 11 10 20 15 20 5 0 6 -4 3 -10 -3 -5 0 -7 8 -4 8 3 18 1 22 -5 8 -14 25 -14
25 -1 0 5 -12 13 -27 16 -23 6 -24 8 -10 19 18 13 24 30 7 20 -5 -3 -10 0 -10
8 0 25 -28 41 -45 27 -13 -11 -43 -9 -97 6 -10 3 -19 -3 -23 -16z m155 -30 c0
-14 -64 -31 -102 -26 -24 3 -46 5 -50 5 -5 1 -8 7 -8 15 0 17 42 28 93 24 20
-1 40 1 43 5 7 7 23 -10 24 -23z"/>
<path d="M317 2679 c9 -9 10 -16 2 -26 -9 -9 -8 -13 0 -13 7 0 9 -6 5 -12 -5
-10 -4 -10 5 -2 16 15 10 56 -9 62 -12 4 -13 2 -3 -9z"/>
<path d="M436 2675 c10 -8 23 -15 28 -15 6 0 1 7 -10 15 -10 8 -23 15 -28 15
-6 0 -1 -7 10 -15z"/>
<path d="M520 2681 c0 -11 15 -15 34 -12 5 1 13 -4 17 -11 7 -10 9 -8 9 5 0
12 -6 17 -17 15 -10 -1 -24 1 -30 5 -8 5 -13 4 -13 -2z"/>
<path d="M7 2673 c-4 -3 -7 -13 -7 -22 1 -13 3 -13 11 2 11 19 8 33 -4 20z"/>
<path d="M367 2646 c-5 -18 -18 -32 -37 -39 -17 -6 -30 -14 -30 -18 0 -11 51
3 56 16 4 8 38 11 122 9 139 -3 151 -5 168 -29 8 -10 14 -14 14 -9 0 6 -6 16
-12 23 -11 11 -9 13 9 8 15 -3 20 -1 16 9 -6 17 -15 18 -32 2 -10 -11 -11 -10
-6 5 4 10 2 17 -4 17 -6 0 -11 -4 -11 -9 0 -5 -8 -8 -17 -6 -10 2 -18 4 -18 5
0 1 -8 3 -17 5 -10 2 -18 -2 -18 -7 0 -6 -8 -4 -18 5 -21 19 -37 23 -26 6 4
-7 -9 -10 -42 -7 -40 3 -48 7 -46 21 2 9 -2 17 -9 17 -6 0 -9 -8 -6 -20 3 -13
0 -20 -8 -20 -8 0 -15 10 -17 23 -3 20 -4 19 -11 -7z"/>
<path d="M1243 2655 c-10 -11 -9 -13 6 -12 11 1 17 7 14 14 -6 16 -5 16 -20
-2z"/>
<path d="M262 2624 c-2 -24 21 -34 33 -14 4 6 -1 7 -12 3 -15 -6 -16 -4 -5 9
10 13 10 17 -1 21 -8 3 -14 -4 -15 -19z"/>
<path d="M906 2636 c7 -19 48 -22 42 -3 -3 6 -14 13 -26 15 -16 3 -20 -1 -16
-12z"/>
<path d="M1018 2643 c-16 -2 -28 -8 -28 -13 0 -5 17 -4 38 2 61 17 57 21 -10
11z"/>
<path d="M1128 2642 c-24 -5 -23 -14 2 -30 24 -15 40 -8 39 16 -1 15 -2 15 -6
0 -5 -19 -18 -24 -27 -9 -4 5 0 11 6 14 18 6 6 14 -14 9z"/>
<path d="M960 2620 c0 -5 5 -10 11 -10 5 0 7 5 4 10 -3 6 -8 10 -11 10 -2 0
-4 -4 -4 -10z"/>
<path d="M55 2610 c-19 -8 -19 -9 3 -9 12 -1 22 4 22 9 0 6 -1 10 -2 9 -2 0
-12 -4 -23 -9z"/>
<path d="M1018 2613 c-10 -2 -18 -9 -18 -14 0 -6 10 -5 23 2 37 20 36 23 -5
12z"/>
<path d="M616 2582 c-3 -5 1 -9 9 -9 8 0 12 4 9 9 -3 4 -7 8 -9 8 -2 0 -6 -4
-9 -8z"/>
<path d="M770 2576 c0 -8 7 -17 16 -20 23 -9 24 -4 2 17 -14 13 -18 14 -18 3z"/>
<path d="M860 2570 c-9 -6 -10 -10 -3 -10 6 0 15 5 18 10 8 12 4 12 -15 0z"/>
<path d="M820 2561 c0 -6 4 -12 8 -15 5 -3 9 1 9 9 0 8 -4 15 -9 15 -4 0 -8
-4 -8 -9z"/>
<path d="M1886 2402 c-2 -4 -1 -23 4 -42 l8 -35 1 43 c1 41 -3 50 -13 34z"/>
<path d="M1866 2321 c-4 -7 -5 -15 -2 -18 9 -9 19 4 14 18 -4 11 -6 11 -12 0z"/>
<path d="M1673 2281 c-4 -14 -14 -19 -41 -19 -21 0 -43 5 -49 10 -9 7 -13 7
-13 0 0 -5 -8 -8 -19 -5 -10 3 -22 0 -25 -6 -5 -7 7 -11 33 -11 22 0 43 -5 46
-11 4 -6 30 -9 62 -7 30 2 57 0 59 -4 3 -4 14 -8 24 -8 10 0 20 -5 22 -11 2
-7 12 1 22 16 12 18 15 30 8 37 -7 7 -12 3 -16 -10 -6 -18 -11 -19 -40 -10
-25 8 -33 15 -29 27 4 13 2 13 -10 -1 -20 -25 -28 -22 -21 7 3 14 3 25 -1 25
-4 0 -9 -9 -12 -19z"/>
<path d="M1818 2274 c4 -20 6 -21 18 -9 18 18 18 22 -4 27 -15 4 -18 1 -14
-18z"/>
<path d="M1757 2270 c-3 -11 -1 -20 4 -20 5 0 9 9 9 20 0 11 -2 20 -4 20 -2 0
-6 -9 -9 -20z"/>
<path d="M1850 2260 c-9 -6 -10 -10 -3 -10 6 0 15 5 18 10 8 12 4 12 -15 0z"/>
<path d="M1100 2246 c0 -8 -3 -23 -6 -33 -5 -13 -4 -15 5 -7 15 14 23 54 10
54 -5 0 -9 -6 -9 -14z"/>
<path d="M1057 2213 c-4 -3 -15 -7 -25 -8 -9 -1 -29 -7 -44 -13 -15 -6 -38
-13 -52 -15 -14 -1 -28 -6 -32 -10 -13 -12 -21 -8 -29 16 l-7 22 -7 -25 c-4
-17 -14 -26 -31 -28 -14 -2 -32 -8 -40 -14 -10 -6 -1 -7 30 -3 25 3 47 10 48
16 2 5 8 6 14 3 12 -8 198 47 198 58 0 10 -14 10 -23 1z"/>
<path d="M1260 2209 c0 -5 5 -7 10 -4 6 3 10 8 10 11 0 2 -4 4 -10 4 -5 0 -10
-5 -10 -11z"/>
<path d="M1675 2210 c-3 -5 -1 -10 4 -10 6 0 11 5 11 10 0 6 -2 10 -4 10 -3 0
-8 -4 -11 -10z"/>
<path d="M1785 2189 c-4 -5 -4 -13 -1 -16 3 -4 6 0 6 8 0 11 2 11 10 -1 6 -9
10 -10 10 -3 0 17 -17 25 -25 12z"/>
<path d="M1725 2180 c3 -5 11 -10 16 -10 6 0 7 5 4 10 -3 6 -11 10 -16 10 -6
0 -7 -4 -4 -10z"/>
<path d="M1193 2163 c0 -17 12 -17 27 1 9 12 8 15 -8 13 -10 0 -19 -7 -19 -14z"/>
<path d="M1288 2173 c7 -3 16 -2 19 1 4 3 -2 6 -13 5 -11 0 -14 -3 -6 -6z"/>
<path d="M758 2145 c-3 -14 -1 -25 3 -25 5 0 9 11 9 25 0 14 -2 25 -4 25 -2 0
-6 -11 -8 -25z"/>
<path d="M1102 2158 c-13 -13 -16 -38 -4 -38 13 1 42 27 42 39 0 15 -23 14
-38 -1z"/>
<path d="M1241 2143 c-17 -18 -9 -26 16 -16 16 6 18 11 9 19 -9 8 -15 7 -25
-3z"/>
<path d="M720 2137 c0 -8 -10 -18 -22 -20 l-23 -4 23 -2 c22 -1 41 23 28 36
-3 4 -6 -1 -6 -10z"/>
<path d="M1870 2146 c0 -2 7 -9 15 -16 12 -10 15 -10 15 4 0 9 -7 16 -15 16
-8 0 -15 -2 -15 -4z"/>
<path d="M1147 2133 c-12 -12 -7 -22 8 -17 9 4 15 0 15 -10 0 -10 6 -13 16 -9
15 5 15 3 0 -25 -20 -39 -20 -46 0 -38 10 4 25 -1 36 -11 15 -14 21 -14 31 -3
9 10 9 11 0 6 -9 -5 -13 0 -13 14 0 16 -5 20 -15 16 -12 -4 -15 3 -15 29 0 28
-4 35 -20 35 -11 0 -20 5 -20 10 0 11 -13 13 -23 3z"/>
<path d="M510 2119 c0 -5 5 -7 10 -4 6 3 10 8 10 11 0 2 -4 4 -10 4 -5 0 -10
-5 -10 -11z"/>
<path d="M590 2117 c0 -9 -6 -17 -14 -17 -8 0 -17 -4 -20 -9 -4 -5 3 -7 15 -4
21 6 36 29 25 40 -3 4 -6 -1 -6 -10z"/>
<path d="M407 2114 c-4 -4 -7 -14 -7 -23 0 -11 3 -12 11 -4 6 6 10 16 7 23 -2
6 -7 8 -11 4z"/>
<path d="M447 2101 c-4 -17 -3 -21 5 -13 5 5 8 16 6 23 -3 8 -7 3 -11 -10z"/>
<path d="M635 2104 l-30 -13 30 6 c32 6 41 11 34 17 -2 2 -17 -2 -34 -10z"/>
<path d="M1042 2108 c-7 -7 -12 -17 -12 -24 0 -7 -6 -14 -12 -17 -7 -2 -10 -8
-6 -12 4 -4 14 0 23 9 18 17 50 22 40 6 -3 -5 0 -7 8 -4 12 4 12 10 3 30 -12
26 -26 30 -44 12z"/>
<path d="M1242 2090 c0 -14 2 -19 5 -12 2 6 2 18 0 25 -3 6 -5 1 -5 -13z"/>
<path d="M470 2080 c0 -5 9 -10 19 -10 11 0 23 5 26 10 4 6 -5 10 -19 10 -14
0 -26 -4 -26 -10z"/>
<path d="M1820 2079 c0 -4 -10 -9 -22 -13 -30 -7 -111 -84 -126 -119 -14 -33
-15 -49 -2 -26 6 10 26 27 46 38 30 18 35 19 30 6 -3 -9 -6 -19 -6 -21 0 -2
-9 -4 -20 -4 -12 0 -20 -7 -20 -17 0 -10 -3 -29 -7 -42 -4 -16 -2 -22 4 -18 8
5 10 -13 6 -55 l-4 -63 20 24 c12 13 21 31 21 40 0 10 18 30 41 47 22 16 53
39 69 52 38 30 41 28 25 -17 -7 -22 -11 -41 -9 -44 3 -3 -2 -4 -12 -3 -10 0
-25 -14 -38 -38 -12 -21 -25 -39 -31 -38 -14 1 -33 -39 -41 -87 -8 -49 3 -52
34 -8 56 79 52 77 46 15 -4 -31 -3 -69 1 -85 l7 -28 13 25 14 25 1 -35 c1 -19
10 -53 20 -75 19 -40 19 -40 19 263 1 234 -2 302 -11 304 -37 4 -68 3 -68 -3z
m28 -96 c-4 -22 -22 -20 -26 1 -2 10 3 16 13 16 10 0 15 -7 13 -17z m-63 -71
c-3 -4 -10 0 -15 8 -6 9 -5 17 3 22 13 8 24 -19 12 -30z m-22 -19 c-7 -3 -13
-13 -13 -24 0 -10 -4 -19 -10 -19 -5 0 -10 9 -10 20 0 11 5 20 10 20 6 0 10 8
10 17 0 14 2 15 13 4 10 -11 10 -14 0 -18z"/>
<path d="M1102 2057 c-12 -13 -22 -34 -22 -47 0 -22 1 -22 19 -6 13 12 27 15
42 11 19 -6 21 -4 14 11 -4 11 -10 27 -12 37 -7 23 -15 22 -41 -6z"/>
<path d="M940 2055 c-14 -8 -20 -14 -14 -15 5 0 19 7 30 15 24 18 16 19 -16 0z"/>
<path d="M1586 1970 c-9 -44 -21 -80 -26 -80 -10 0 -40 52 -40 70 0 14 -20 34
-41 42 -12 5 -14 -1 -10 -35 6 -42 15 -50 99 -93 29 -15 35 -15 43 -3 5 8 9
22 9 31 0 10 9 41 20 69 24 60 21 79 -13 79 -21 0 -25 -7 -41 -80z"/>
<path d="M1691 2033 c-1 -6 -4 -20 -7 -30 -5 -17 -5 -17 6 0 6 10 9 23 6 30
-3 9 -5 9 -5 0z"/>
<path d="M895 2020 c3 -5 8 -10 11 -10 2 0 4 5 4 10 0 6 -5 10 -11 10 -5 0 -7
-4 -4 -10z"/>
<path d="M990 2020 c8 -5 24 -9 35 -9 l20 0 -20 9 c-11 5 -27 9 -35 9 -13 1
-13 0 0 -9z"/>
<path d="M1046 1995 c-3 -8 -1 -15 4 -15 6 0 10 7 10 15 0 8 -2 15 -4 15 -2 0
-6 -7 -10 -15z"/>
<path d="M1180 2000 c0 -5 5 -10 10 -10 6 0 10 5 10 10 0 6 -4 10 -10 10 -5 0
-10 -4 -10 -10z"/>
<path d="M960 1991 c0 -11 49 -36 56 -29 3 3 -9 13 -25 21 -17 9 -31 12 -31 8z"/>
<path d="M1120 1990 c0 -5 5 -10 10 -10 6 0 10 5 10 10 0 6 -4 10 -10 10 -5 0
-10 -4 -10 -10z"/>
<path d="M1200 1970 c0 -5 5 -10 10 -10 6 0 10 -5 10 -12 0 -17 51 -68 68 -68
7 0 1 11 -15 24 -16 13 -35 36 -42 50 -14 26 -31 35 -31 16z"/>
<path d="M1045 1960 c-3 -6 1 -7 9 -4 18 7 21 14 7 14 -6 0 -13 -4 -16 -10z"/>
<path d="M1136 1954 c-17 -12 -17 -14 -4 -14 9 0 20 5 23 11 11 17 2 18 -19 3z"/>
<path d="M928 1953 c7 -3 16 -2 19 1 4 3 -2 6 -13 5 -11 0 -14 -3 -6 -6z"/>
<path d="M56 1932 c-4 -7 0 -19 8 -28 17 -17 19 -11 7 20 -5 14 -10 16 -15 8z"/>
<path d="M1055 1930 c-3 -5 -3 -16 1 -22 5 -10 4 -10 -6 -1 -14 13 -47 -14
-52 -44 -2 -10 -12 -24 -22 -32 -19 -14 -19 -14 0 -29 16 -12 16 -14 2 -9 -22
8 -33 -9 -19 -27 11 -13 5 -26 -10 -26 -5 0 -6 7 -2 16 4 12 2 15 -8 12 -8 -2
-16 -15 -18 -29 -1 -13 -6 -26 -10 -29 -12 -8 -41 -54 -41 -64 0 -5 8 -2 18 7
25 23 35 21 22 -4 -11 -19 -10 -20 9 -9 12 6 21 17 21 24 0 17 28 74 41 81 5
4 6 11 3 17 -4 6 -1 14 5 18 7 4 13 16 14 27 0 12 6 19 12 17 5 -2 15 6 20 18
6 13 28 32 50 43 22 11 42 21 45 23 2 2 -2 7 -10 12 -9 6 -17 5 -22 -3 -7 -11
-12 -3 -9 16 2 11 -27 9 -34 -3z"/>
<path d="M1450 1905 c0 -6 56 -35 67 -35 4 0 -7 9 -25 20 -33 20 -42 24 -42
15z"/>
<path d="M1293 1855 c-16 -18 -17 -61 -1 -71 6 -4 16 0 23 9 7 10 17 17 24 17
15 0 14 21 -3 43 -16 20 -27 21 -43 2z"/>
<path d="M0 1850 c0 -5 15 -10 34 -10 19 0 38 5 41 10 4 6 -10 10 -34 10 -23
0 -41 -4 -41 -10z"/>
<path d="M1553 1841 c-2 -25 14 -37 55 -43 29 -4 37 1 33 25 0 4 4 7 9 7 6 0
10 5 10 11 0 8 -4 8 -15 -1 -8 -6 -24 -9 -37 -5 -17 5 -19 4 -8 -4 20 -14 7
-24 -20 -16 -15 5 -18 10 -11 19 6 7 8 16 4 19 -11 12 -19 7 -20 -12z"/>
<path d="M1220 1815 c0 -9 41 -111 63 -155 25 -51 75 -110 93 -110 6 0 14 8
18 18 3 9 11 25 18 34 20 27 -1 70 -45 91 -33 17 -54 46 -24 35 6 -3 28 1 47
9 l35 13 -43 -5 c-51 -6 -101 12 -129 49 -19 24 -33 33 -33 21z m150 -195
c-13 -10 -30 -16 -37 -13 -22 8 -15 23 11 23 14 0 28 5 31 11 4 6 10 7 13 4 4
-4 -4 -15 -18 -25z"/>
<path d="M1370 1810 c20 -13 33 -13 25 0 -3 6 -14 10 -23 10 -15 0 -15 -2 -2
-10z"/>
<path d="M13 1803 c-24 -9 -13 -20 17 -15 17 2 30 8 30 13 0 10 -27 11 -47 2z"/>
<path d="M1529 1793 c-13 -16 -12 -17 4 -4 9 7 17 15 17 17 0 8 -8 3 -21 -13z"/>
<path d="M1574 1780 c-49 -20 -71 -101 -29 -108 19 -4 19 -3 2 10 -23 17 -12
52 14 45 16 -4 17 -2 8 15 -12 22 -2 40 10 19 7 -10 9 -11 13 -1 3 10 9 10 27
1 21 -12 22 -11 11 8 -11 22 -23 25 -56 11z"/>
<path d="M638 1728 c-16 -18 -28 -37 -29 -43 0 -5 -5 1 -10 14 -7 18 -14 22
-32 17 -43 -10 -97 -36 -97 -46 0 -6 -5 -10 -10 -10 -13 0 -59 -51 -60 -65 0
-6 -10 -21 -23 -35 -13 -14 -26 -33 -30 -42 -3 -10 -10 -18 -16 -18 -5 0 -12
-25 -16 -55 -4 -38 -11 -56 -23 -59 -25 -8 -91 -8 -135 0 -32 5 -37 4 -37 -13
0 -11 6 -28 14 -38 13 -18 14 -18 20 3 10 31 28 28 20 -3 -9 -38 3 -70 32 -84
15 -6 29 -10 31 -7 2 2 -4 7 -15 10 -11 4 -23 13 -26 21 -7 19 -1 19 30 -1 19
-13 28 -14 37 -5 8 8 7 11 -7 11 -10 0 -14 5 -10 11 4 7 1 10 -7 7 -33 -12
-66 30 -37 48 7 5 9 2 5 -9 -7 -19 10 -26 49 -20 22 3 26 2 14 -6 -13 -9 -13
-11 2 -11 26 0 33 21 13 37 -17 11 -17 13 -2 13 9 0 21 -9 27 -20 9 -17 6 -27
-16 -55 -20 -27 -23 -35 -11 -35 20 0 47 38 47 67 0 28 20 30 27 3 4 -15 11
-19 24 -15 32 10 21 -5 -11 -16 -16 -6 -30 -16 -30 -22 0 -5 -15 -23 -32 -39
-18 -16 -38 -43 -44 -60 -14 -42 -31 -46 -45 -11 -6 15 -20 44 -30 64 -11 20
-19 44 -19 52 0 9 -15 20 -35 27 -35 12 -44 27 -25 46 8 8 6 15 -5 24 -8 7
-19 10 -22 6 -4 -4 -1 -12 7 -17 11 -8 12 -12 3 -16 -23 -9 -14 -36 23 -69 29
-27 35 -39 32 -66 l-3 -33 -27 28 c-15 16 -29 41 -33 55 -6 28 -55 59 -75 47
-19 -12 -10 -71 19 -131 37 -77 52 -89 117 -90 50 -1 92 -22 80 -42 -2 -4 -1
-13 3 -20 5 -8 19 4 41 36 18 26 26 41 18 35 -8 -7 -18 -10 -21 -6 -12 11 -7
23 9 23 9 0 24 10 34 23 10 12 22 19 26 15 4 -5 0 -16 -8 -25 -9 -10 -13 -24
-11 -30 3 -7 0 -13 -6 -13 -6 0 -11 -9 -11 -20 0 -12 -5 -17 -14 -14 -10 4
-16 -5 -21 -26 -5 -24 -11 -30 -25 -25 -15 5 -21 -4 -34 -42 -9 -27 -17 -74
-19 -105 -2 -64 9 -79 73 -98 42 -12 67 2 94 53 20 38 15 73 -8 64 -14 -6 -56
18 -56 32 0 4 16 5 35 3 19 -2 35 0 35 5 0 15 -23 33 -42 33 -17 0 -17 3 3 42
12 24 29 51 37 61 15 17 15 19 -1 28 -25 15 -21 29 11 30 16 1 20 3 10 6 -22
5 -24 43 -3 43 8 0 15 5 15 11 0 7 -7 8 -17 4 -33 -12 -38 -10 -41 16 -3 22 2
27 24 32 41 7 55 -1 48 -29 -4 -17 -1 -26 10 -30 9 -3 16 -11 16 -16 0 -6 -7
-5 -15 2 -22 18 -31 4 -16 -24 8 -13 10 -29 7 -35 -9 -13 12 -53 23 -46 5 2
12 20 15 39 8 43 24 40 91 -21 25 -24 52 -43 59 -43 41 0 78 15 86 34 35 82
144 116 210 65 l25 -18 -36 11 c-27 8 -41 8 -55 -1 -17 -11 -17 -11 3 -6 18 5
22 3 17 -9 -7 -19 -25 -21 -43 -3 -11 10 -12 9 -5 -3 11 -20 13 -50 2 -44 -4
3 -8 12 -8 20 0 21 -9 17 -41 -17 -25 -26 -26 -31 -9 -26 27 7 25 3 -6 -18
-20 -13 -28 -14 -34 -5 -5 9 -9 9 -14 1 -4 -6 -3 -11 3 -11 6 0 8 -7 5 -15 -8
-21 34 -57 58 -49 10 3 18 1 18 -5 0 -6 -9 -11 -20 -11 -11 0 -20 -7 -20 -15
0 -8 4 -15 9 -15 6 0 6 -11 0 -27 -5 -16 -18 -62 -30 -103 -12 -41 -37 -108
-55 -148 -19 -40 -34 -77 -34 -82 0 -27 -58 7 -78 46 -6 11 -9 45 -6 75 3 30
1 74 -4 99 -9 42 -10 40 -8 -32 1 -50 -3 -81 -11 -89 -11 -11 -13 -8 -13 13 0
29 -35 78 -56 78 -8 0 -44 -27 -79 -60 -36 -34 -70 -58 -75 -55 -6 3 -10 24
-10 46 0 43 -20 60 -49 42 -27 -17 -24 -39 9 -77 48 -54 77 -50 136 19 27 30
54 55 62 55 7 0 19 -14 27 -32 13 -31 12 -33 -16 -46 -16 -8 -29 -18 -29 -23
0 -18 -2 -24 -12 -37 -12 -14 -7 -22 14 -26 69 -14 59 -32 -17 -30 -68 2 -93
-10 -53 -25 15 -5 26 -5 31 3 6 7 7 6 4 -4 -2 -8 -18 -17 -35 -20 -29 -5 -30
-6 -16 -25 13 -17 17 -18 35 -7 18 12 23 11 36 -7 26 -38 50 -26 69 34 16 49
21 55 45 55 18 0 36 -10 54 -31 l26 -32 -27 -28 c-20 -21 -25 -32 -17 -40 8
-8 14 -5 22 10 7 12 16 21 22 21 6 0 7 -6 1 -16 -5 -9 -6 -34 -2 -55 4 -21 4
-57 0 -79 -6 -31 -5 -38 5 -30 6 5 12 25 13 43 1 38 42 150 71 198 14 23 21
51 21 87 0 59 22 81 47 46 12 -16 11 -20 -4 -31 -15 -12 -15 -13 4 -13 22 0
33 -24 33 -72 0 -16 4 -28 10 -28 5 0 23 -21 41 -47 18 -27 46 -63 63 -81 18
-20 31 -45 32 -62 1 -16 -2 -28 -6 -25 -5 3 -19 1 -32 -4 -17 -7 -2 -10 60
-10 l82 -1 0 39 c0 22 -6 46 -14 53 -7 8 -17 28 -20 44 -6 26 -3 32 21 43 19
9 29 9 31 2 2 -6 10 -11 19 -11 25 0 45 -27 34 -47 -22 -44 -71 -154 -71 -160
0 -13 25 -9 26 5 1 6 2 16 3 21 1 9 91 5 121 -5 12 -5 11 -8 -5 -20 -19 -15
-19 -15 10 -12 21 2 29 7 25 18 -2 8 -6 52 -8 98 -2 59 -7 82 -17 82 -7 0 -16
-7 -19 -16 -8 -22 -26 -7 -26 22 0 14 4 22 10 19 13 -8 13 24 -1 63 -12 34
-29 34 -29 1 0 -37 -27 -19 -37 26 -10 43 0 74 13 41 8 -20 24 -21 24 -1 0 27
14 16 55 -42 35 -51 40 -66 45 -131 l5 -74 28 22 28 22 -7 -26 c-9 -38 1 -32
30 19 15 25 30 45 34 45 4 0 21 22 37 50 17 27 33 50 38 50 8 0 10 30 2 30 -4
0 -20 -7 -36 -16 l-30 -15 3 28 c2 20 11 30 32 38 22 7 30 7 34 -3 2 -6 8 -10
13 -6 5 3 9 -4 9 -16 0 -40 27 -88 52 -92 19 -2 22 -8 20 -30 -2 -15 2 -35 8
-45 8 -14 9 -10 4 20 -7 42 0 46 33 15 13 -12 23 -16 23 -10 0 18 -48 61 -86
77 -30 12 -34 18 -34 49 0 63 43 37 49 -29 0 -8 6 -15 11 -15 13 0 13 43 -1
57 -8 8 -8 13 0 18 13 7 -10 35 -28 35 -6 0 -11 5 -11 10 0 6 5 10 10 10 14 0
12 43 -2 59 -7 8 -8 11 -3 8 14 -7 37 12 54 44 11 22 11 33 0 65 -7 22 -16 44
-20 49 -22 31 -61 282 -47 307 7 14 5 16 -8 11 -18 -7 -18 -8 1 87 5 28 2 41
-15 63 -25 32 -40 35 -40 8 0 -11 -4 -23 -10 -26 -18 -11 -10 51 9 74 18 21
20 21 26 4 3 -10 18 -33 34 -51 28 -33 29 -33 34 -10 4 13 34 52 68 86 40 42
59 68 55 78 -3 9 -9 26 -12 39 -5 19 -12 23 -32 21 -36 -5 -72 10 -72 28 0 11
6 13 28 6 31 -8 66 5 56 21 -3 6 4 21 16 34 26 28 21 55 -11 55 -12 0 -39 16
-60 35 -36 32 -79 49 -64 25 3 -5 3 -10 -2 -10 -14 0 -33 -54 -27 -78 5 -18 9
-20 20 -11 23 19 16 -4 -11 -35 -15 -17 -25 -23 -25 -15 0 9 -3 10 -8 3 -4 -6
-14 -13 -22 -17 -8 -4 -25 -14 -37 -23 -22 -16 -23 -15 -23 4 0 36 -120 116
-136 91 -3 -6 8 -31 26 -55 23 -33 27 -44 16 -44 -9 0 -27 18 -40 39 -21 33
-31 39 -68 43 -24 3 -57 -1 -75 -8 -37 -15 -93 -87 -93 -121 0 -30 -4 -29 -43
8 -60 58 -65 49 -5 -11 62 -63 71 -69 62 -46 -15 38 54 166 89 166 6 0 1 -10
-10 -22 -29 -32 -43 -62 -43 -92 0 -28 9 -31 58 -17 17 5 32 8 32 6 0 -6 -60
-47 -73 -49 -7 -1 -23 -8 -36 -15 -13 -7 -36 -11 -52 -9 -15 3 -26 1 -23 -3 2
-4 0 -10 -4 -13 -11 -7 -52 31 -52 47 0 8 3 7 9 -2 9 -14 41 -9 41 7 0 5 -16
26 -35 48 -33 38 -34 38 -35 14 l-1 -25 -10 24 c-14 36 -6 48 56 78 51 25 70
43 45 43 -5 0 -10 7 -10 16 0 11 -6 13 -19 9 -11 -3 -22 -1 -26 5 -3 5 1 10 9
10 9 0 16 5 16 11 0 6 -8 8 -19 4 -13 -4 -23 2 -34 19 -9 13 -50 40 -91 60
-40 20 -76 42 -80 51 -9 23 -29 18 -58 -17z m-98 -73 c-8 -9 -8 -15 0 -20 13
-8 3 -25 -16 -25 -23 0 -28 29 -9 50 19 21 43 17 25 -5z m115 -15 c3 -5 1 -10
-4 -10 -6 0 -11 5 -11 10 0 6 2 10 4 10 3 0 8 -4 11 -10z m184 -61 c1 -26 -20
-54 -32 -43 -3 3 -1 18 4 33 6 14 10 27 10 29 -1 1 -1 12 0 25 0 21 1 21 9 2
5 -11 9 -32 9 -46z m-209 29 c0 -17 -3 -19 -9 -9 -11 17 -23 -1 -15 -23 3 -9
1 -16 -5 -16 -6 0 -11 -7 -11 -15 0 -8 -6 -15 -13 -15 -14 0 -63 -47 -56 -54
2 -2 22 -13 44 -24 l40 -21 -31 -1 c-17 0 -43 9 -57 20 -30 24 -37 25 -37 4 0
-42 104 -96 141 -74 8 6 16 5 20 -2 4 -6 11 9 16 33 10 53 36 61 41 13 2 -24
-4 -39 -28 -63 -17 -17 -40 -31 -50 -31 -10 0 -20 -5 -22 -10 -2 -7 -23 -5
-57 5 -29 9 -54 15 -54 13 -1 -2 -8 -13 -15 -26 -17 -30 -3 -48 44 -57 30 -5
39 -3 51 14 8 12 19 21 26 21 6 0 0 -12 -15 -27 -35 -34 -83 -36 -110 -3 -19
24 -18 71 3 78 15 6 10 20 -17 47 -20 20 -24 32 -20 53 8 34 41 62 72 62 18 0
30 12 53 53 46 81 71 100 71 55z m70 -30 c0 -6 -7 -5 -15 2 -8 7 -15 17 -15
22 0 6 7 5 15 -2 8 -7 15 -17 15 -22z m890 -8 c0 -5 -4 -10 -10 -10 -5 0 -10
5 -10 10 0 6 5 10 10 10 6 0 10 -4 10 -10z m-912 -12 c18 -18 16 -59 -2 -52
-9 3 -12 12 -9 22 5 11 2 14 -10 9 -17 -6 -24 13 -10 26 9 10 17 9 31 -5z
m802 -83 c0 -8 -4 -17 -10 -20 -6 -4 -10 5 -10 20 0 15 4 24 10 20 6 -3 10
-12 10 -20z m140 -82 c0 -14 -31 -33 -54 -33 -8 0 -22 7 -30 16 -18 17 -22 54
-6 54 6 0 10 -11 10 -25 0 -25 2 -26 70 -16 2 1 -1 6 -8 13 -7 7 -12 19 -12
28 1 12 4 11 15 -4 8 -11 15 -26 15 -33z m-103 -20 c3 -7 -3 -9 -16 -6 -12 3
-21 10 -21 15 0 13 32 6 37 -9z m1 -47 c38 1 42 -12 8 -27 -19 -9 -29 -7 -50
6 -29 19 -36 42 -8 29 9 -4 32 -8 50 -8z m-1082 -11 c-9 -23 15 -65 45 -81 36
-18 60 -18 85 1 38 29 36 14 -5 -25 -28 -27 -50 -40 -69 -40 -36 0 -75 40 -75
78 0 33 11 82 19 82 3 0 4 -7 0 -15z m694 5 c0 -5 -5 -10 -11 -10 -5 0 -7 5
-4 10 3 6 8 10 11 10 2 0 4 -4 4 -10z m-615 -18 c-3 -3 -11 0 -18 7 -9 10 -8
11 6 5 10 -3 15 -9 12 -12z m710 -72 c0 -7 -6 -15 -12 -17 -8 -3 -13 4 -13 17
0 13 5 20 13 18 6 -3 12 -11 12 -18z m-261 -25 c4 -14 2 -34 -4 -45 -8 -16 -6
-21 12 -31 28 -15 72 -59 65 -65 -7 -8 -47 15 -47 26 0 6 -25 26 -55 46 -30
20 -55 43 -55 51 0 8 4 12 8 9 4 -2 19 4 32 15 33 24 37 24 44 -6z m171 -27
c17 -1 44 1 60 6 27 6 28 6 15 -8 -8 -8 -31 -19 -50 -24 l-35 -10 33 -1 c28
-1 34 -6 49 -43 10 -24 17 -46 15 -50 -1 -5 4 -8 11 -8 8 0 23 -10 35 -22 18
-20 19 -29 11 -73 -5 -27 -7 -55 -4 -62 2 -7 -2 -13 -10 -13 -8 0 -15 -7 -15
-16 0 -8 5 -12 10 -9 6 3 10 -3 10 -15 0 -13 -4 -19 -11 -14 -8 5 -10 0 -6
-17 4 -14 2 -38 -2 -54 -6 -17 -10 -22 -10 -12 -1 10 -6 15 -11 12 -6 -4 -13
7 -16 24 -4 17 -10 31 -15 31 -5 0 -9 7 -9 15 0 8 7 15 15 15 8 0 15 4 15 9 0
5 -27 9 -60 8 -61 -2 -73 -9 -44 -25 13 -7 14 -13 5 -30 -14 -27 -4 -79 12
-63 21 21 29 11 13 -14 -18 -28 -21 -39 -6 -30 6 4 0 -13 -14 -37 -20 -36 -29
-43 -56 -43 -22 -1 -35 6 -42 19 -8 15 -8 21 1 24 8 3 7 8 -5 16 -13 10 -15
21 -10 50 6 30 10 35 21 26 10 -9 15 -6 20 10 4 12 14 19 23 18 24 -4 20 59
-5 77 -23 17 -44 165 -28 208 6 18 6 30 0 35 -12 9 -16 42 -5 42 14 0 29 57
18 68 -6 6 -7 15 -4 21 5 7 15 1 29 -14 13 -16 34 -26 52 -27z m-5 21 c0 -6
-4 -7 -10 -4 -5 3 -10 11 -10 16 0 6 5 7 10 4 6 -3 10 -11 10 -16z m327 -11
c-3 -7 -5 -2 -5 12 0 14 2 19 5 13 2 -7 2 -19 0 -25z m2 -216 c22 -104 27
-162 14 -162 -5 0 -16 55 -26 123 -10 67 -20 136 -22 152 -12 69 14 -15 34
-113z m-1224 -182 c-3 -5 -10 -10 -16 -10 -5 0 -9 5 -9 10 0 6 7 10 16 10 8 0
12 -4 9 -10z m65 -18 c0 -15 -11 -21 -27 -15 -12 5 -12 7 -1 14 17 11 28 11
28 1z m1146 -39 c-10 -10 -19 5 -10 18 6 11 8 11 12 0 2 -7 1 -15 -2 -18z
m-186 -51 c20 -17 21 -21 9 -43 l-14 -24 -3 25 c-2 14 -11 33 -19 43 -21 23
-1 22 27 -1z m-48 -19 c17 -15 25 -43 12 -43 -8 0 -43 43 -44 53 0 12 12 8 32
-10z m108 -28 c0 -8 -9 -19 -19 -25 -30 -15 -33 -12 -15 15 18 28 34 33 34 10z
m-126 -12 c10 -25 -10 -39 -28 -20 -9 9 -16 20 -16 26 0 18 37 13 44 -6z
m-470 -15 c-4 -7 -16 -19 -26 -26 -10 -7 -16 -18 -12 -23 3 -5 2 -24 -1 -41
-6 -26 -9 -29 -17 -14 -14 25 0 73 29 96 30 23 37 25 27 8z m622 -37 c-4 -6
-18 -10 -32 -9 l-26 2 23 19 c23 18 48 10 35 -12z m-350 -36 c-9 -14 -12 -25
-6 -25 5 0 10 -7 10 -15 0 -8 -5 -15 -10 -15 -20 0 -23 32 -5 68 10 21 20 31
22 24 3 -7 -2 -24 -11 -37z m484 30 c7 -9 8 -15 2 -15 -5 0 -12 7 -16 15 -3 8
-4 15 -2 15 2 0 9 -7 16 -15z m-154 -35 c8 0 14 -7 14 -15 0 -18 -14 -19 -41
-5 -23 13 -26 35 -3 26 9 -3 22 -6 30 -6z m-871 -10 c3 -5 1 -10 -4 -10 -6 0
-11 5 -11 10 0 6 2 10 4 10 3 0 8 -4 11 -10z m848 -48 c10 -11 13 -23 8 -31
-12 -18 -62 14 -54 35 7 19 27 18 46 -4z m-43 -52 c15 -28 1 -49 -17 -25 -15
22 -17 45 -3 45 5 0 14 -9 20 -20z m-803 -12 c-3 -8 -6 -5 -6 6 -1 11 2 17 5
13 3 -3 4 -12 1 -19z m713 -127 c0 -24 -43 -81 -61 -81 -28 0 -23 18 14 56 33
34 47 41 47 25z"/>
<path d="M1225 811 c-3 -5 -1 -12 5 -16 5 -3 10 1 10 9 0 18 -6 21 -15 7z"/>
<path d="M1046 721 c-21 -24 -12 -48 22 -54 33 -7 55 11 42 33 -8 12 -13 13
-30 3 -27 -17 -35 -16 -16 2 8 8 19 15 25 15 6 0 11 5 11 10 0 17 -36 11 -54
-9z"/>
<path d="M1056 651 c-4 -6 -5 -15 -2 -20 7 -11 56 -2 56 11 0 6 -8 7 -17 4 -9
-4 -20 -2 -23 5 -6 8 -9 8 -14 0z"/>
<path d="M20 1740 l-25 -8 28 -1 c15 -1 27 4 27 9 0 6 -1 10 -2 9 -2 -1 -14
-5 -28 -9z"/>
<path d="M1601 1728 c9 -7 19 -20 23 -28 3 -8 4 -4 3 10 -1 16 -9 26 -22 28
-18 3 -18 3 -4 -10z"/>
<path d="M20 1710 c0 -5 5 -10 11 -10 5 0 7 5 4 10 -3 6 -8 10 -11 10 -2 0 -4
-4 -4 -10z"/>
<path d="M70 1712 c0 -6 -16 -16 -35 -22 -19 -6 -35 -17 -35 -23 0 -8 4 -7 12
1 7 7 22 12 34 12 20 0 41 26 29 38 -3 3 -5 0 -5 -6z"/>
<path d="M1540 1700 c0 -5 5 -10 10 -10 6 0 10 5 10 10 0 6 -4 10 -10 10 -5 0
-10 -4 -10 -10z"/>
<path d="M1580 1702 c0 -23 13 -42 29 -42 12 0 13 2 3 9 -7 4 -12 14 -10 21 2
7 -3 15 -9 17 -7 3 -13 0 -13 -5z"/>
<path d="M1117 1693 c-2 -4 -7 -21 -11 -38 -7 -28 -7 -29 11 -12 15 13 22 14
31 5 9 -9 5 -17 -14 -35 -17 -16 -20 -23 -10 -23 8 0 22 7 30 16 9 8 20 13 25
10 13 -9 42 4 35 16 -3 5 -16 13 -27 17 -12 5 -22 17 -22 27 0 19 -39 33 -48
17z"/>
<path d="M25 1650 c-3 -5 -2 -10 4 -10 6 0 8 -6 5 -14 -3 -8 3 -15 18 -18 17
-3 24 0 24 13 0 11 -6 15 -15 11 -10 -4 -13 -1 -8 11 7 19 -17 24 -28 7z"/>
<path d="M1048 1620 c-25 -32 -28 -50 -8 -50 5 0 7 6 4 14 -3 8 4 21 16 29 12
9 20 21 18 28 -2 7 -15 -2 -30 -21z"/>
<path d="M0 1497 c0 -92 4 -146 10 -142 5 3 6 13 3 22 -5 14 -1 15 30 10 29
-4 37 -2 37 9 0 12 -8 13 -35 8 l-34 -6 1 43 c1 24 5 49 10 56 5 6 5 14 0 17
-5 3 -8 27 -7 54 2 28 -1 56 -6 63 -5 8 -9 -47 -9 -134z"/>
<path d="M1615 1630 c-3 -5 -2 -10 4 -10 5 0 13 5 16 10 3 6 2 10 -4 10 -5 0
-13 -4 -16 -10z"/>
<path d="M1060 1595 c0 -8 7 -15 15 -15 9 0 12 6 9 15 -4 8 -10 15 -15 15 -5
0 -9 -7 -9 -15z"/>
<path d="M54 1572 c-6 -4 -13 -15 -17 -25 -6 -17 -6 -17 18 0 33 24 32 48 -1
25z"/>
<path d="M46 1514 c-4 -9 1 -14 14 -14 23 0 27 15 6 23 -8 3 -17 -1 -20 -9z"/>
<path d="M33 1461 c-1 -12 7 -21 20 -25 25 -6 37 2 18 13 -7 5 -10 14 -7 20 4
7 0 11 -11 11 -11 0 -19 -8 -20 -19z"/>
<path d="M1707 1403 c-13 -13 -19 -14 -29 -5 -16 16 -28 15 -28 -3 0 -9 7 -18
15 -21 8 -4 15 -12 15 -18 0 -7 11 -22 24 -34 l25 -21 26 25 c21 19 27 21 32
9 4 -12 9 -13 19 -4 18 14 17 49 0 72 -17 22 -76 22 -99 0z m56 -5 c5 -18 -3
-48 -14 -48 -5 0 -9 14 -9 30 0 30 15 41 23 18z m-33 -64 c0 -8 -5 -12 -10 -9
-6 4 -8 11 -5 16 9 14 15 11 15 -7z"/>
<path d="M1835 1409 c-10 -15 1 -23 20 -15 9 3 13 10 10 16 -8 13 -22 13 -30
-1z"/>
<path d="M15 1340 c-25 -11 1 -11 35 0 20 6 21 8 5 8 -11 0 -29 -3 -40 -8z"/>
<path d="M1887 1293 c-4 -3 -7 -17 -7 -30 0 -23 -1 -23 -22 -9 -32 22 -58 20
-58 -4 0 -11 7 -20 15 -20 17 0 20 -17 4 -22 -17 -6 40 -68 62 -68 17 0 19 8
19 80 0 80 -1 86 -13 73z"/>
<path d="M1671 1257 c-7 -10 -20 -17 -28 -17 -12 0 -13 -3 -3 -15 9 -11 16
-12 30 -3 15 9 25 9 44 -2 29 -15 35 -47 11 -56 -8 -4 -15 -12 -15 -20 0 -8
-4 -14 -10 -14 -5 0 -10 -4 -10 -10 0 -25 28 -5 58 40 36 56 38 62 17 54 -8
-3 -22 1 -30 10 -9 9 -23 16 -30 16 -7 0 -15 7 -17 17 -3 15 -4 15 -17 0z"/>
<path d="M1558 1250 c-5 -15 9 -67 16 -59 3 2 1 20 -3 39 -4 22 -9 29 -13 20z"/>
<path d="M1525 1211 c-7 -12 17 -62 39 -80 21 -17 20 -15 -8 42 -14 26 -27 43
-31 38z"/>
<path d="M1615 1190 c-3 -5 1 -10 9 -10 9 0 16 5 16 10 0 6 -4 10 -9 10 -6 0
-13 -4 -16 -10z"/>
<path d="M1660 1164 c0 -8 -7 -22 -15 -30 -20 -20 -19 -34 3 -34 18 0 42 46
34 68 -5 17 -22 15 -22 -4z"/>
<path d="M1750 1125 c0 -21 46 -70 54 -57 3 5 -5 18 -18 27 -13 10 -22 24 -19
32 3 7 0 13 -6 13 -6 0 -11 -7 -11 -15z"/>
<path d="M1815 1101 c-3 -5 -1 -12 4 -15 5 -3 11 1 15 9 6 16 -9 21 -19 6z"/>
<path d="M1730 1061 c0 -14 18 -23 31 -15 8 4 7 9 -2 15 -18 11 -29 11 -29 0z"/>
<path d="M1590 1050 c-13 -8 -12 -10 3 -10 9 0 17 5 17 10 0 12 -1 12 -20 0z"/>
<path d="M1675 1030 c-8 -13 15 -13 35 0 12 8 11 10 -7 10 -12 0 -25 -4 -28
-10z"/>
<path d="M1592 988 c-14 -14 -16 -38 -4 -38 12 0 32 23 32 37 0 16 -12 17 -28
1z"/>
<path d="M1618 941 c-26 -31 -30 -41 -13 -35 9 4 25 -2 37 -12 18 -17 19 -26
14 -79 -3 -32 -2 -55 2 -50 15 17 35 92 28 104 -4 6 4 13 19 17 14 3 25 9 25
13 0 3 -22 18 -49 32 -45 24 -50 25 -63 10z"/>
<path d="M1604 845 c1 -25 2 -45 3 -45 1 0 9 7 17 16 28 27 16 74 -18 74 -2 0
-2 -20 -2 -45z"/>
<path d="M1830 836 c0 -8 6 -16 13 -19 19 -7 41 8 33 22 -10 16 -46 14 -46 -3z"/>
<path d="M1717 834 c-4 -4 -7 -15 -7 -25 0 -9 -14 -43 -30 -74 -24 -45 -28
-61 -19 -71 9 -11 15 -11 25 -3 18 15 74 100 74 112 0 15 -30 -14 -46 -46 -27
-50 -25 -23 1 38 15 33 22 62 17 67 -4 4 -11 5 -15 2z"/>
<path d="M1780 785 c0 -8 7 -15 15 -15 8 0 15 7 15 15 0 8 -7 15 -15 15 -8 0
-15 -7 -15 -15z"/>
<path d="M1820 771 c0 -14 33 -23 40 -10 5 6 12 -2 19 -21 9 -26 8 -30 -2 -22
-16 14 -42 -1 -32 -19 4 -8 -3 -3 -15 11 l-21 25 20 -41 c19 -38 19 -42 3 -59
-16 -16 -16 -17 8 -9 14 4 33 7 43 6 15 -1 17 9 17 68 0 53 -4 69 -16 74 -24
9 -64 7 -64 -3z"/>
<path d="M0 741 c0 -5 7 -12 16 -15 14 -5 15 -4 4 9 -14 17 -20 19 -20 6z"/>
<path d="M1631 704 c-1 -5 -16 -25 -33 -44 l-33 -33 33 17 c35 18 47 37 39 58
-3 7 -6 8 -6 2z"/>
<path d="M4 665 c1 -21 36 -35 36 -15 0 7 -6 10 -14 7 -9 -4 -16 1 -19 11 -3
12 -4 11 -3 -3z"/>
<path d="M1703 662 c-17 -14 -43 -75 -43 -103 0 -8 78 6 87 15 4 3 -8 6 -25 6
-38 0 -40 12 -11 59 24 39 22 46 -8 23z"/>
<path d="M1790 640 c0 -5 4 -10 9 -10 6 0 13 5 16 10 3 6 -1 10 -9 10 -9 0
-16 -4 -16 -10z"/>
<path d="M22 605 c0 -16 2 -22 5 -12 2 9 2 23 0 30 -3 6 -5 -1 -5 -18z"/>
<path d="M50 595 c0 -12 -5 -26 -12 -33 -9 -9 -7 -12 10 -12 24 0 29 23 12 50
-8 12 -10 11 -10 -5z"/>
<path d="M374 568 c-3 -4 2 -8 10 -8 8 0 17 4 20 8 3 5 -2 9 -10 9 -8 0 -17
-4 -20 -9z"/>
<path d="M140 562 c-46 -7 -46 -22 1 -21 46 1 111 15 94 19 -16 5 -68 5 -95 2z"/>
<path d="M1771 553 c16 -26 56 -46 64 -33 4 6 -2 10 -11 10 -10 0 -29 10 -42
23 -25 22 -25 22 -11 0z"/>
<path d="M0 531 c0 -5 7 -14 15 -21 13 -11 13 -14 -2 -26 -17 -12 -16 -13 7
-14 21 0 25 5 25 28 1 15 -4 30 -10 34 -14 11 -35 10 -35 -1z"/>
<path d="M1680 516 c0 -15 7 -26 18 -28 13 -3 10 -8 -14 -21 -17 -9 -34 -23
-37 -32 -9 -23 7 -18 31 10 13 15 33 25 48 25 l27 0 -27 25 c-14 13 -26 29
-26 35 0 5 -4 10 -10 10 -5 0 -10 -11 -10 -24z"/>
<path d="M377 523 c-4 -3 -7 -11 -7 -17 0 -6 5 -5 12 2 6 6 9 14 7 17 -3 3 -9
2 -12 -2z"/>
<path d="M340 509 c0 -5 5 -7 10 -4 6 3 10 8 10 11 0 2 -4 4 -10 4 -5 0 -10
-5 -10 -11z"/>
<path d="M1756 505 c-3 -8 -1 -15 4 -15 6 0 10 7 10 15 0 8 -2 15 -4 15 -2 0
-6 -7 -10 -15z"/>
<path d="M195 488 c-11 -6 -23 -16 -27 -22 -10 -15 -10 -186 0 -186 26 0 41
96 22 146 -12 31 -3 54 20 54 11 0 22 5 25 10 8 13 -15 12 -40 -2z"/>
<path d="M1786 485 c4 -9 0 -15 -10 -15 -19 0 -20 -9 -2 -32 18 -25 27 -22 20
6 -4 16 -1 25 10 29 23 9 20 27 -4 27 -13 0 -18 -5 -14 -15z"/>
<path d="M220 460 l-23 -20 36 0 c42 0 56 15 28 29 -14 8 -24 6 -41 -9z"/>
<path d="M1825 423 c-16 -26 -35 -60 -42 -75 -14 -33 -52 -45 -93 -28 -21 9
-30 19 -30 36 0 12 -4 26 -10 29 -13 8 -13 -4 1 -43 23 -67 107 -65 146 4 l23
39 1 -45 0 -45 14 38 c14 38 31 137 24 137 -2 0 -17 -21 -34 -47z"/>
<path d="M62 440 c14 -22 24 -19 15 5 -4 8 -11 15 -17 15 -6 0 -6 -7 2 -20z"/>
<path d="M12 403 c2 -26 8 -38 18 -38 22 0 25 42 3 48 -17 5 -17 5 0 6 21 1
13 21 -9 21 -11 0 -14 -9 -12 -37z"/>
<path d="M1711 431 c-7 -5 -11 -23 -9 -47 2 -31 7 -39 23 -39 16 0 21 8 23 36
3 38 -15 63 -37 50z m21 -46 c-2 -14 -8 -25 -13 -25 -10 0 -12 43 -3 53 13 12
21 -3 16 -28z"/>
<path d="M273 408 c-6 -7 -13 -21 -16 -30 -5 -14 -1 -18 16 -17 12 0 17 3 10
5 -8 4 -9 13 -3 30 10 26 8 31 -7 12z"/>
<path d="M300 380 c0 -11 5 -20 10 -20 16 0 12 -60 -5 -66 -20 -8 -19 -24 0
-24 28 0 37 52 19 113 -7 23 -24 22 -24 -3z"/>
<path d="M75 361 c-5 -23 -12 -31 -29 -31 -12 0 -27 5 -34 12 -8 8 -12 8 -12
1 0 -23 29 -36 55 -25 23 10 44 56 32 68 -3 3 -8 -8 -12 -25z"/>
<path d="M282 330 c0 -14 2 -19 5 -12 2 6 2 18 0 25 -3 6 -5 1 -5 -13z"/>
<path d="M353 307 c1 -36 10 -47 22 -27 3 5 -1 22 -9 37 l-14 28 1 -38z"/>
<path d="M217 313 c-10 -9 -8 -43 2 -43 5 0 9 11 9 25 0 27 -1 28 -11 18z"/>
<path d="M256 276 c3 -9 11 -16 16 -16 13 0 5 23 -10 28 -7 2 -10 -2 -6 -12z"/>
<path d="M1350 271 c0 -11 17 -38 38 -61 34 -35 36 -40 18 -40 -12 0 -28 -5
-36 -10 -11 -7 2 -10 44 -10 45 0 57 3 53 14 -4 9 4 16 25 20 39 8 58 23 58
47 0 24 -5 24 -31 -2 -12 -12 -24 -17 -28 -12 -3 5 -24 10 -46 10 -31 1 -45 7
-67 32 -24 27 -28 28 -28 12z"/>
<path d="M1807 271 c-4 -17 -3 -21 5 -13 5 5 8 16 6 23 -3 8 -7 3 -11 -10z"/>
<path d="M0 259 c0 -11 4 -17 10 -14 5 3 10 1 10 -5 0 -7 6 -10 14 -7 8 3 16
1 18 -5 5 -14 38 -3 38 11 0 18 -41 35 -50 21 -5 -8 -9 -7 -13 4 -9 23 -27 20
-27 -5z"/>
<path d="M1604 244 c3 -8 6 -18 6 -20 0 -2 5 -4 10 -4 16 0 11 27 -6 34 -12 5
-15 2 -10 -10z"/>
<path d="M0 220 c0 -11 41 -30 68 -30 22 0 3 18 -23 23 -11 1 -26 6 -32 10 -8
5 -13 4 -13 -3z"/>
<path d="M200 216 c-5 -5 -10 -20 -10 -33 0 -28 25 -31 59 -7 22 16 23 15 19
-2 -2 -13 -16 -21 -46 -27 -44 -9 -49 -27 -6 -27 13 0 24 -5 24 -11 0 -5 5 -7
11 -3 6 3 15 0 20 -7 6 -11 9 -10 15 4 6 17 7 17 21 0 14 -17 14 -17 10 5 -5
19 -1 22 29 22 19 0 34 4 34 9 0 10 -35 21 -69 21 -20 0 -22 2 -10 16 8 10 15
12 17 5 8 -25 82 -4 82 23 0 29 -63 35 -92 9 -13 -11 -22 -14 -26 -6 -10 15
-69 22 -82 9z m180 -10 c0 -2 -7 -9 -15 -16 -12 -10 -15 -10 -15 4 0 9 7 16
15 16 8 0 15 -2 15 -4z m-145 -16 c-3 -5 -10 -10 -16 -10 -5 0 -9 5 -9 10 0 6
7 10 16 10 8 0 12 -4 9 -10z"/>
<path d="M795 198 c-4 -9 -21 -15 -47 -16 -49 -2 -65 -12 -20 -12 18 0 32 -4
32 -10 0 -5 3 -10 8 -10 11 1 45 51 38 57 -3 3 -8 -1 -11 -9z"/>
<path d="M385 170 c-3 -5 -2 -10 4 -10 5 0 13 5 16 10 3 6 2 10 -4 10 -5 0
-13 -4 -16 -10z"/>
<path d="M1696 155 c-4 -11 2 -15 21 -15 21 0 24 2 13 15 -7 8 -16 15 -20 15
-4 0 -10 -7 -14 -15z"/>
<path d="M620 150 c0 -5 12 -10 26 -10 14 0 23 4 19 10 -3 6 -15 10 -26 10
-10 0 -19 -4 -19 -10z"/>
<path d="M32 118 c2 -6 14 -15 26 -19 17 -6 22 -5 22 7 0 8 -5 12 -10 9 -5 -3
-10 -1 -10 4 0 6 -7 11 -16 11 -9 0 -14 -5 -12 -12z"/>
<path d="M340 110 c0 -5 7 -10 15 -10 8 0 15 5 15 10 0 6 -7 10 -15 10 -8 0
-15 -4 -15 -10z"/>
<path d="M205 100 c4 -6 11 -8 16 -5 14 9 11 15 -7 15 -8 0 -12 -5 -9 -10z"/>
</g>
</svg>
